G04 #@! TF.FileFunction,Legend,Top*
%FSLAX46Y46*%
G04 Gerber Fmt 4.6, Leading zero omitted, Abs format (unit mm)*
G04 Created by KiCad (PCBNEW 4.0.7) date 04/14/20 22:35:50*
%MOMM*%
%LPD*%
G01*
G04 APERTURE LIST*
%ADD10C,0.100000*%
%ADD11C,0.300000*%
%ADD12C,0.120000*%
%ADD13C,0.150000*%
G04 APERTURE END LIST*
D10*
D11*
X131350000Y-105078571D02*
X131350000Y-103578571D01*
X132207143Y-105078571D02*
X131564286Y-104221429D01*
X132207143Y-103578571D02*
X131350000Y-104435714D01*
X132850000Y-105078571D02*
X132850000Y-103578571D01*
X133707143Y-105078571D02*
X133064286Y-104221429D01*
X133707143Y-103578571D02*
X132850000Y-104435714D01*
X135064286Y-105078571D02*
X134350000Y-105078571D01*
X134350000Y-103578571D01*
X120535714Y-105957142D02*
X120607143Y-106028571D01*
X120678571Y-106242857D01*
X120678571Y-106385714D01*
X120607143Y-106599999D01*
X120464286Y-106742857D01*
X120321429Y-106814285D01*
X120035714Y-106885714D01*
X119821429Y-106885714D01*
X119535714Y-106814285D01*
X119392857Y-106742857D01*
X119250000Y-106599999D01*
X119178571Y-106385714D01*
X119178571Y-106242857D01*
X119250000Y-106028571D01*
X119321429Y-105957142D01*
X120535714Y-104457142D02*
X120607143Y-104528571D01*
X120678571Y-104742857D01*
X120678571Y-104885714D01*
X120607143Y-105099999D01*
X120464286Y-105242857D01*
X120321429Y-105314285D01*
X120035714Y-105385714D01*
X119821429Y-105385714D01*
X119535714Y-105314285D01*
X119392857Y-105242857D01*
X119250000Y-105099999D01*
X119178571Y-104885714D01*
X119178571Y-104742857D01*
X119250000Y-104528571D01*
X119321429Y-104457142D01*
X119178571Y-103385714D02*
X120250000Y-103385714D01*
X120464286Y-103457142D01*
X120607143Y-103599999D01*
X120678571Y-103814285D01*
X120678571Y-103957142D01*
D12*
X138600000Y-112750000D02*
X138600000Y-111750000D01*
X136900000Y-111750000D02*
X136900000Y-112750000D01*
X135250000Y-114150000D02*
X134250000Y-114150000D01*
X134250000Y-115850000D02*
X135250000Y-115850000D01*
X118950000Y-113000000D02*
X118950000Y-114000000D01*
X120650000Y-114000000D02*
X120650000Y-113000000D01*
X135650000Y-110640000D02*
X133850000Y-110640000D01*
X133850000Y-113860000D02*
X136300000Y-113860000D01*
D13*
X122875000Y-112625000D02*
X122875000Y-112850000D01*
X130125000Y-112625000D02*
X130125000Y-112950000D01*
X130125000Y-119875000D02*
X130125000Y-119550000D01*
X122875000Y-119875000D02*
X122875000Y-119550000D01*
X122875000Y-112625000D02*
X123200000Y-112625000D01*
X122875000Y-119875000D02*
X123200000Y-119875000D01*
X130125000Y-119875000D02*
X129800000Y-119875000D01*
X130125000Y-112625000D02*
X129800000Y-112625000D01*
X122875000Y-112850000D02*
X121450000Y-112850000D01*
X120600000Y-117200000D02*
X120600000Y-120400000D01*
X118600000Y-117200000D02*
X120600000Y-117200000D01*
X118600000Y-120400000D02*
X118600000Y-117200000D01*
X120600000Y-120400000D02*
X118600000Y-120400000D01*
D12*
X124800000Y-106925000D02*
X123850000Y-106925000D01*
X123850000Y-106925000D02*
X123850000Y-106525000D01*
X134950000Y-106925000D02*
X135900000Y-106925000D01*
X135900000Y-106925000D02*
X135900000Y-106525000D01*
X123850000Y-102825000D02*
X123850000Y-102425000D01*
X123850000Y-102425000D02*
X129875000Y-102425000D01*
X135900000Y-102825000D02*
X135900000Y-102425000D01*
X135900000Y-102425000D02*
X129875000Y-102425000D01*
X134950000Y-106925000D02*
X134950000Y-108425000D01*
D13*
X138082143Y-115366666D02*
X138129762Y-115414285D01*
X138177381Y-115557142D01*
X138177381Y-115652380D01*
X138129762Y-115795238D01*
X138034524Y-115890476D01*
X137939286Y-115938095D01*
X137748810Y-115985714D01*
X137605952Y-115985714D01*
X137415476Y-115938095D01*
X137320238Y-115890476D01*
X137225000Y-115795238D01*
X137177381Y-115652380D01*
X137177381Y-115557142D01*
X137225000Y-115414285D01*
X137272619Y-115366666D01*
X138177381Y-114414285D02*
X138177381Y-114985714D01*
X138177381Y-114700000D02*
X137177381Y-114700000D01*
X137320238Y-114795238D01*
X137415476Y-114890476D01*
X137463095Y-114985714D01*
X135107143Y-117116666D02*
X135154762Y-117164285D01*
X135202381Y-117307142D01*
X135202381Y-117402380D01*
X135154762Y-117545238D01*
X135059524Y-117640476D01*
X134964286Y-117688095D01*
X134773810Y-117735714D01*
X134630952Y-117735714D01*
X134440476Y-117688095D01*
X134345238Y-117640476D01*
X134250000Y-117545238D01*
X134202381Y-117402380D01*
X134202381Y-117307142D01*
X134250000Y-117164285D01*
X134297619Y-117116666D01*
X134297619Y-116735714D02*
X134250000Y-116688095D01*
X134202381Y-116592857D01*
X134202381Y-116354761D01*
X134250000Y-116259523D01*
X134297619Y-116211904D01*
X134392857Y-116164285D01*
X134488095Y-116164285D01*
X134630952Y-116211904D01*
X135202381Y-116783333D01*
X135202381Y-116164285D01*
X120207143Y-110741666D02*
X120254762Y-110789285D01*
X120302381Y-110932142D01*
X120302381Y-111027380D01*
X120254762Y-111170238D01*
X120159524Y-111265476D01*
X120064286Y-111313095D01*
X119873810Y-111360714D01*
X119730952Y-111360714D01*
X119540476Y-111313095D01*
X119445238Y-111265476D01*
X119350000Y-111170238D01*
X119302381Y-111027380D01*
X119302381Y-110932142D01*
X119350000Y-110789285D01*
X119397619Y-110741666D01*
X119302381Y-110408333D02*
X119302381Y-109789285D01*
X119683333Y-110122619D01*
X119683333Y-109979761D01*
X119730952Y-109884523D01*
X119778571Y-109836904D01*
X119873810Y-109789285D01*
X120111905Y-109789285D01*
X120207143Y-109836904D01*
X120254762Y-109884523D01*
X120302381Y-109979761D01*
X120302381Y-110265476D01*
X120254762Y-110360714D01*
X120207143Y-110408333D01*
X131652381Y-112961905D02*
X132461905Y-112961905D01*
X132557143Y-112914286D01*
X132604762Y-112866667D01*
X132652381Y-112771429D01*
X132652381Y-112580952D01*
X132604762Y-112485714D01*
X132557143Y-112438095D01*
X132461905Y-112390476D01*
X131652381Y-112390476D01*
X132652381Y-111390476D02*
X132652381Y-111961905D01*
X132652381Y-111676191D02*
X131652381Y-111676191D01*
X131795238Y-111771429D01*
X131890476Y-111866667D01*
X131938095Y-111961905D01*
X130552381Y-121661905D02*
X131361905Y-121661905D01*
X131457143Y-121614286D01*
X131504762Y-121566667D01*
X131552381Y-121471429D01*
X131552381Y-121280952D01*
X131504762Y-121185714D01*
X131457143Y-121138095D01*
X131361905Y-121090476D01*
X130552381Y-121090476D01*
X130552381Y-120709524D02*
X130552381Y-120090476D01*
X130933333Y-120423810D01*
X130933333Y-120280952D01*
X130980952Y-120185714D01*
X131028571Y-120138095D01*
X131123810Y-120090476D01*
X131361905Y-120090476D01*
X131457143Y-120138095D01*
X131504762Y-120185714D01*
X131552381Y-120280952D01*
X131552381Y-120566667D01*
X131504762Y-120661905D01*
X131457143Y-120709524D01*
X119676190Y-121876191D02*
X120152381Y-121876191D01*
X119152381Y-122209524D02*
X119676190Y-121876191D01*
X119152381Y-121542857D01*
X119247619Y-121257143D02*
X119200000Y-121209524D01*
X119152381Y-121114286D01*
X119152381Y-120876190D01*
X119200000Y-120780952D01*
X119247619Y-120733333D01*
X119342857Y-120685714D01*
X119438095Y-120685714D01*
X119580952Y-120733333D01*
X120152381Y-121304762D01*
X120152381Y-120685714D01*
X122252381Y-108033333D02*
X122966667Y-108033333D01*
X123109524Y-108080953D01*
X123204762Y-108176191D01*
X123252381Y-108319048D01*
X123252381Y-108414286D01*
X123252381Y-107033333D02*
X123252381Y-107604762D01*
X123252381Y-107319048D02*
X122252381Y-107319048D01*
X122395238Y-107414286D01*
X122490476Y-107509524D01*
X122538095Y-107604762D01*
M02*
