M48
INCH,TZ
T1C0.012
T2C0.016
%
G90
G05
T1
X46870Y-45748
X47047Y-41102
X47047Y-41457
X47087Y-47717
X47087Y-48071
X47323Y-45925
X47402Y-41102
X47402Y-41457
X47441Y-47717
X47441Y-48071
X50000Y-45965
X50157Y-44764
X50492Y-45866
X50945Y-40945
X50945Y-41299
X51299Y-40945
X51299Y-41299
X52224Y-45728
X52756Y-47982
X53425Y-42835
X53425Y-43189
X53780Y-42835
X53780Y-43189
X54449Y-45098
T2
X47087Y-46772
X48661Y-46752
X49016Y-45787
X49016Y-47953
X49128Y-46713
X49331Y-45404
X49341Y-43474
X49409Y-42018
X49409Y-42352
X49409Y-42687
X49902Y-42018
X49902Y-42352
X49902Y-42687
X50030Y-43366
X50157Y-45512
X50394Y-42018
X50394Y-42352
X50394Y-42687
X50630Y-46752
X50886Y-42018
X50886Y-42352
X50886Y-42697
X51083Y-47953
X51329Y-43839
X51801Y-43366
X52028Y-47421
X52126Y-44567
X52657Y-45276
X52854Y-42008
X52854Y-42352
X52854Y-42687
X53740Y-46713
X53996Y-46949
T0
M30
