G04 #@! TF.FileFunction,Legend,Top*
%FSLAX46Y46*%
G04 Gerber Fmt 4.6, Leading zero omitted, Abs format (unit mm)*
G04 Created by KiCad (PCBNEW 4.0.7) date 03/27/20 13:09:03*
%MOMM*%
%LPD*%
G01*
G04 APERTURE LIST*
%ADD10C,0.100000*%
%ADD11C,0.120000*%
%ADD12C,0.150000*%
G04 APERTURE END LIST*
D10*
D11*
X138600000Y-112750000D02*
X138600000Y-111750000D01*
X136900000Y-111750000D02*
X136900000Y-112750000D01*
X135250000Y-114150000D02*
X134250000Y-114150000D01*
X134250000Y-115850000D02*
X135250000Y-115850000D01*
X118950000Y-113000000D02*
X118950000Y-114000000D01*
X120650000Y-114000000D02*
X120650000Y-113000000D01*
X122020000Y-106810000D02*
X122950000Y-106810000D01*
X125180000Y-106810000D02*
X124250000Y-106810000D01*
X125180000Y-106810000D02*
X125180000Y-104650000D01*
X122020000Y-106810000D02*
X122020000Y-105350000D01*
X137500000Y-109287500D02*
G75*
G03X137500000Y-109287500I-250000J0D01*
G01*
X136650000Y-104462500D02*
X128850000Y-104462500D01*
X137750000Y-106362500D02*
X137750000Y-108712500D01*
X137750000Y-108712500D02*
X136850000Y-108712500D01*
X137250000Y-108712500D02*
X137250000Y-107512500D01*
X137250000Y-107512500D02*
X137250000Y-107512500D01*
X137250000Y-107512500D02*
X137250000Y-108712500D01*
X137250000Y-108712500D02*
X137250000Y-108712500D01*
X137250000Y-108212500D02*
X137250000Y-108212500D01*
X137250000Y-108212500D02*
X137750000Y-108212500D01*
X137750000Y-108212500D02*
X137750000Y-108212500D01*
X137750000Y-108212500D02*
X137250000Y-108212500D01*
X137250000Y-107512500D02*
X137250000Y-107512500D01*
X137250000Y-107512500D02*
X137750000Y-107512500D01*
X137750000Y-107512500D02*
X137750000Y-107512500D01*
X137750000Y-107512500D02*
X137250000Y-107512500D01*
X127750000Y-106362500D02*
X127750000Y-108712500D01*
X127750000Y-108712500D02*
X128650000Y-108712500D01*
X128250000Y-108712500D02*
X128250000Y-107512500D01*
X128250000Y-107512500D02*
X128250000Y-107512500D01*
X128250000Y-107512500D02*
X128250000Y-108712500D01*
X128250000Y-108712500D02*
X128250000Y-108712500D01*
X128250000Y-108212500D02*
X128250000Y-108212500D01*
X128250000Y-108212500D02*
X127750000Y-108212500D01*
X127750000Y-108212500D02*
X127750000Y-108212500D01*
X127750000Y-108212500D02*
X128250000Y-108212500D01*
X128250000Y-107512500D02*
X128250000Y-107512500D01*
X128250000Y-107512500D02*
X127750000Y-107512500D01*
X127750000Y-107512500D02*
X127750000Y-107512500D01*
X127750000Y-107512500D02*
X128250000Y-107512500D01*
X135650000Y-110640000D02*
X133850000Y-110640000D01*
X133850000Y-113860000D02*
X136300000Y-113860000D01*
D12*
X122875000Y-112625000D02*
X122875000Y-112850000D01*
X130125000Y-112625000D02*
X130125000Y-112950000D01*
X130125000Y-119875000D02*
X130125000Y-119550000D01*
X122875000Y-119875000D02*
X122875000Y-119550000D01*
X122875000Y-112625000D02*
X123200000Y-112625000D01*
X122875000Y-119875000D02*
X123200000Y-119875000D01*
X130125000Y-119875000D02*
X129800000Y-119875000D01*
X130125000Y-112625000D02*
X129800000Y-112625000D01*
X122875000Y-112850000D02*
X121450000Y-112850000D01*
X120600000Y-117200000D02*
X120600000Y-120400000D01*
X118600000Y-117200000D02*
X120600000Y-117200000D01*
X118600000Y-120400000D02*
X118600000Y-117200000D01*
X120600000Y-120400000D02*
X118600000Y-120400000D01*
X138082143Y-115366666D02*
X138129762Y-115414285D01*
X138177381Y-115557142D01*
X138177381Y-115652380D01*
X138129762Y-115795238D01*
X138034524Y-115890476D01*
X137939286Y-115938095D01*
X137748810Y-115985714D01*
X137605952Y-115985714D01*
X137415476Y-115938095D01*
X137320238Y-115890476D01*
X137225000Y-115795238D01*
X137177381Y-115652380D01*
X137177381Y-115557142D01*
X137225000Y-115414285D01*
X137272619Y-115366666D01*
X138177381Y-114414285D02*
X138177381Y-114985714D01*
X138177381Y-114700000D02*
X137177381Y-114700000D01*
X137320238Y-114795238D01*
X137415476Y-114890476D01*
X137463095Y-114985714D01*
X135107143Y-117116666D02*
X135154762Y-117164285D01*
X135202381Y-117307142D01*
X135202381Y-117402380D01*
X135154762Y-117545238D01*
X135059524Y-117640476D01*
X134964286Y-117688095D01*
X134773810Y-117735714D01*
X134630952Y-117735714D01*
X134440476Y-117688095D01*
X134345238Y-117640476D01*
X134250000Y-117545238D01*
X134202381Y-117402380D01*
X134202381Y-117307142D01*
X134250000Y-117164285D01*
X134297619Y-117116666D01*
X134297619Y-116735714D02*
X134250000Y-116688095D01*
X134202381Y-116592857D01*
X134202381Y-116354761D01*
X134250000Y-116259523D01*
X134297619Y-116211904D01*
X134392857Y-116164285D01*
X134488095Y-116164285D01*
X134630952Y-116211904D01*
X135202381Y-116783333D01*
X135202381Y-116164285D01*
X120207143Y-110741666D02*
X120254762Y-110789285D01*
X120302381Y-110932142D01*
X120302381Y-111027380D01*
X120254762Y-111170238D01*
X120159524Y-111265476D01*
X120064286Y-111313095D01*
X119873810Y-111360714D01*
X119730952Y-111360714D01*
X119540476Y-111313095D01*
X119445238Y-111265476D01*
X119350000Y-111170238D01*
X119302381Y-111027380D01*
X119302381Y-110932142D01*
X119350000Y-110789285D01*
X119397619Y-110741666D01*
X119302381Y-110408333D02*
X119302381Y-109789285D01*
X119683333Y-110122619D01*
X119683333Y-109979761D01*
X119730952Y-109884523D01*
X119778571Y-109836904D01*
X119873810Y-109789285D01*
X120111905Y-109789285D01*
X120207143Y-109836904D01*
X120254762Y-109884523D01*
X120302381Y-109979761D01*
X120302381Y-110265476D01*
X120254762Y-110360714D01*
X120207143Y-110408333D01*
X121327381Y-106638095D02*
X120327381Y-106638095D01*
X120327381Y-106400000D01*
X120375000Y-106257142D01*
X120470238Y-106161904D01*
X120565476Y-106114285D01*
X120755952Y-106066666D01*
X120898810Y-106066666D01*
X121089286Y-106114285D01*
X121184524Y-106161904D01*
X121279762Y-106257142D01*
X121327381Y-106400000D01*
X121327381Y-106638095D01*
X121327381Y-105114285D02*
X121327381Y-105685714D01*
X121327381Y-105400000D02*
X120327381Y-105400000D01*
X120470238Y-105495238D01*
X120565476Y-105590476D01*
X120613095Y-105685714D01*
X133891667Y-105152381D02*
X133891667Y-105866667D01*
X133844047Y-106009524D01*
X133748809Y-106104762D01*
X133605952Y-106152381D01*
X133510714Y-106152381D01*
X134320238Y-105247619D02*
X134367857Y-105200000D01*
X134463095Y-105152381D01*
X134701191Y-105152381D01*
X134796429Y-105200000D01*
X134844048Y-105247619D01*
X134891667Y-105342857D01*
X134891667Y-105438095D01*
X134844048Y-105580952D01*
X134272619Y-106152381D01*
X134891667Y-106152381D01*
X131252381Y-112261905D02*
X132061905Y-112261905D01*
X132157143Y-112214286D01*
X132204762Y-112166667D01*
X132252381Y-112071429D01*
X132252381Y-111880952D01*
X132204762Y-111785714D01*
X132157143Y-111738095D01*
X132061905Y-111690476D01*
X131252381Y-111690476D01*
X132252381Y-110690476D02*
X132252381Y-111261905D01*
X132252381Y-110976191D02*
X131252381Y-110976191D01*
X131395238Y-111071429D01*
X131490476Y-111166667D01*
X131538095Y-111261905D01*
X125852381Y-110561905D02*
X126661905Y-110561905D01*
X126757143Y-110514286D01*
X126804762Y-110466667D01*
X126852381Y-110371429D01*
X126852381Y-110180952D01*
X126804762Y-110085714D01*
X126757143Y-110038095D01*
X126661905Y-109990476D01*
X125852381Y-109990476D01*
X125852381Y-109609524D02*
X125852381Y-108990476D01*
X126233333Y-109323810D01*
X126233333Y-109180952D01*
X126280952Y-109085714D01*
X126328571Y-109038095D01*
X126423810Y-108990476D01*
X126661905Y-108990476D01*
X126757143Y-109038095D01*
X126804762Y-109085714D01*
X126852381Y-109180952D01*
X126852381Y-109466667D01*
X126804762Y-109561905D01*
X126757143Y-109609524D01*
X119676190Y-121876191D02*
X120152381Y-121876191D01*
X119152381Y-122209524D02*
X119676190Y-121876191D01*
X119152381Y-121542857D01*
X119247619Y-121257143D02*
X119200000Y-121209524D01*
X119152381Y-121114286D01*
X119152381Y-120876190D01*
X119200000Y-120780952D01*
X119247619Y-120733333D01*
X119342857Y-120685714D01*
X119438095Y-120685714D01*
X119580952Y-120733333D01*
X120152381Y-121304762D01*
X120152381Y-120685714D01*
M02*
