G04 #@! TF.FileFunction,Paste,Top*
%FSLAX46Y46*%
G04 Gerber Fmt 4.6, Leading zero omitted, Abs format (unit mm)*
G04 Created by KiCad (PCBNEW 4.0.7) date 03/27/20 13:09:03*
%MOMM*%
%LPD*%
G01*
G04 APERTURE LIST*
%ADD10C,0.100000*%
%ADD11R,1.250000X1.000000*%
%ADD12R,1.000000X1.250000*%
%ADD13R,0.800000X0.900000*%
%ADD14R,0.600000X1.550000*%
%ADD15R,1.200000X1.800000*%
%ADD16R,1.060000X0.650000*%
%ADD17R,1.600000X0.550000*%
%ADD18R,0.550000X1.600000*%
%ADD19R,2.000000X0.700000*%
%ADD20R,2.000000X0.500000*%
G04 APERTURE END LIST*
D10*
D11*
X137750000Y-111250000D03*
X137750000Y-113250000D03*
D12*
X133750000Y-115000000D03*
X135750000Y-115000000D03*
D11*
X119800000Y-114500000D03*
X119800000Y-112500000D03*
D13*
X124550000Y-105050000D03*
X122650000Y-105050000D03*
X123600000Y-107050000D03*
D14*
X136250000Y-109037500D03*
X135250000Y-109037500D03*
X134250000Y-109037500D03*
X133250000Y-109037500D03*
X132250000Y-109037500D03*
X131250000Y-109037500D03*
X130250000Y-109037500D03*
X129250000Y-109037500D03*
D15*
X137550000Y-105162500D03*
X127950000Y-105162500D03*
D16*
X135850000Y-113200000D03*
X135850000Y-112250000D03*
X135850000Y-111300000D03*
X133650000Y-111300000D03*
X133650000Y-113200000D03*
D17*
X122250000Y-113450000D03*
X122250000Y-114250000D03*
X122250000Y-115050000D03*
X122250000Y-115850000D03*
X122250000Y-116650000D03*
X122250000Y-117450000D03*
X122250000Y-118250000D03*
X122250000Y-119050000D03*
D18*
X123700000Y-120500000D03*
X124500000Y-120500000D03*
X125300000Y-120500000D03*
X126100000Y-120500000D03*
X126900000Y-120500000D03*
X127700000Y-120500000D03*
X128500000Y-120500000D03*
X129300000Y-120500000D03*
D17*
X130750000Y-119050000D03*
X130750000Y-118250000D03*
X130750000Y-117450000D03*
X130750000Y-116650000D03*
X130750000Y-115850000D03*
X130750000Y-115050000D03*
X130750000Y-114250000D03*
X130750000Y-113450000D03*
D18*
X129300000Y-112000000D03*
X128500000Y-112000000D03*
X127700000Y-112000000D03*
X126900000Y-112000000D03*
X126100000Y-112000000D03*
X125300000Y-112000000D03*
X124500000Y-112000000D03*
X123700000Y-112000000D03*
D19*
X119600000Y-119750000D03*
D20*
X119600000Y-118800000D03*
D19*
X119600000Y-117850000D03*
M02*
