G04 #@! TF.FileFunction,Copper,L1,Top,Signal*
%FSLAX46Y46*%
G04 Gerber Fmt 4.6, Leading zero omitted, Abs format (unit mm)*
G04 Created by KiCad (PCBNEW 4.0.7) date 03/27/20 13:09:03*
%MOMM*%
%LPD*%
G01*
G04 APERTURE LIST*
%ADD10C,0.100000*%
%ADD11C,0.600000*%
%ADD12R,1.250000X1.000000*%
%ADD13R,1.000000X1.250000*%
%ADD14R,0.800000X0.900000*%
%ADD15R,0.600000X1.550000*%
%ADD16R,1.200000X1.800000*%
%ADD17R,1.060000X0.650000*%
%ADD18R,1.600000X0.550000*%
%ADD19R,0.550000X1.600000*%
%ADD20R,2.000000X0.700000*%
%ADD21R,2.000000X0.500000*%
%ADD22C,0.250000*%
%ADD23C,0.254000*%
G04 APERTURE END LIST*
D10*
D11*
X134000000Y-121875000D03*
X137450000Y-108900000D03*
X132575000Y-105350000D03*
X134325000Y-117150000D03*
X127450000Y-116650000D03*
X128900000Y-116800000D03*
X126050000Y-110400000D03*
X119700000Y-107850000D03*
X119750000Y-109150000D03*
X119800000Y-110450000D03*
X119650000Y-116500000D03*
D12*
X137750000Y-111250000D03*
X137750000Y-113250000D03*
D13*
X133750000Y-115000000D03*
X135750000Y-115000000D03*
D12*
X119800000Y-114500000D03*
X119800000Y-112500000D03*
D14*
X124550000Y-105050000D03*
X122650000Y-105050000D03*
X123600000Y-107050000D03*
D15*
X136250000Y-109037500D03*
X135250000Y-109037500D03*
X134250000Y-109037500D03*
X133250000Y-109037500D03*
X132250000Y-109037500D03*
X131250000Y-109037500D03*
X130250000Y-109037500D03*
X129250000Y-109037500D03*
D16*
X137550000Y-105162500D03*
X127950000Y-105162500D03*
D17*
X135850000Y-113200000D03*
X135850000Y-112250000D03*
X135850000Y-111300000D03*
X133650000Y-111300000D03*
X133650000Y-113200000D03*
D18*
X122250000Y-113450000D03*
X122250000Y-114250000D03*
X122250000Y-115050000D03*
X122250000Y-115850000D03*
X122250000Y-116650000D03*
X122250000Y-117450000D03*
X122250000Y-118250000D03*
X122250000Y-119050000D03*
D19*
X123700000Y-120500000D03*
X124500000Y-120500000D03*
X125300000Y-120500000D03*
X126100000Y-120500000D03*
X126900000Y-120500000D03*
X127700000Y-120500000D03*
X128500000Y-120500000D03*
X129300000Y-120500000D03*
D18*
X130750000Y-119050000D03*
X130750000Y-118250000D03*
X130750000Y-117450000D03*
X130750000Y-116650000D03*
X130750000Y-115850000D03*
X130750000Y-115050000D03*
X130750000Y-114250000D03*
X130750000Y-113450000D03*
D19*
X129300000Y-112000000D03*
X128500000Y-112000000D03*
X127700000Y-112000000D03*
X126900000Y-112000000D03*
X126100000Y-112000000D03*
X125300000Y-112000000D03*
X124500000Y-112000000D03*
X123700000Y-112000000D03*
D20*
X119600000Y-119750000D03*
D21*
X119600000Y-118800000D03*
D20*
X119600000Y-117850000D03*
D11*
X119250000Y-121050000D03*
X136250000Y-107450000D03*
X119600000Y-118800000D03*
X135865000Y-120560000D03*
X132075000Y-118025000D03*
X133155000Y-113050000D03*
X124350000Y-109050000D03*
X123300000Y-109050000D03*
X125600000Y-107650000D03*
X131200000Y-107750000D03*
X129750000Y-110300000D03*
X128300000Y-109000000D03*
X134250000Y-110350000D03*
X131900000Y-111000000D03*
X136500000Y-118650000D03*
X133175000Y-120475000D03*
X137150000Y-119250000D03*
X128900000Y-118800000D03*
X126325000Y-115300000D03*
X125300000Y-117150000D03*
X125500000Y-118800000D03*
X123700000Y-119000000D03*
X124475000Y-117200000D03*
X124500000Y-121900000D03*
X131500000Y-121900000D03*
D22*
X136250000Y-107450000D02*
X136250000Y-109037500D01*
X136250000Y-109037500D02*
X136250000Y-110900000D01*
X136250000Y-110900000D02*
X135850000Y-111300000D01*
X135850000Y-111300000D02*
X137700000Y-111300000D01*
X137700000Y-111300000D02*
X137750000Y-111250000D01*
X135850000Y-111300000D02*
X134950000Y-111300000D01*
X134950000Y-113200000D02*
X135850000Y-113200000D01*
X134750000Y-113000000D02*
X134950000Y-113200000D01*
X134750000Y-111500000D02*
X134750000Y-113000000D01*
X134950000Y-111300000D02*
X134750000Y-111500000D01*
X135875000Y-120575000D02*
X135875000Y-120570000D01*
X135875000Y-120570000D02*
X135865000Y-120560000D01*
X130750000Y-115850000D02*
X129100000Y-115850000D01*
X129100000Y-115850000D02*
X129000000Y-115950000D01*
X122250000Y-116650000D02*
X119800000Y-116650000D01*
X119800000Y-116650000D02*
X119650000Y-116500000D01*
X132075000Y-118025000D02*
X131850000Y-118250000D01*
X131850000Y-118250000D02*
X130750000Y-118250000D01*
X122250000Y-115850000D02*
X123400000Y-115850000D01*
X129600000Y-118250000D02*
X130750000Y-118250000D01*
X129350000Y-118000000D02*
X129600000Y-118250000D01*
X124000000Y-118000000D02*
X129350000Y-118000000D01*
X123650000Y-117650000D02*
X124000000Y-118000000D01*
X123650000Y-116100000D02*
X123650000Y-117650000D01*
X123400000Y-115850000D02*
X123650000Y-116100000D01*
X119800000Y-114500000D02*
X119800000Y-115300000D01*
X120350000Y-115850000D02*
X122250000Y-115850000D01*
X119800000Y-115300000D02*
X120350000Y-115850000D01*
X133155000Y-113050000D02*
X133305000Y-113200000D01*
X133305000Y-113200000D02*
X133650000Y-113200000D01*
X130750000Y-118250000D02*
X131850000Y-118250000D01*
X131850000Y-118250000D02*
X133750000Y-116350000D01*
X133750000Y-116350000D02*
X133750000Y-115000000D01*
X133650000Y-113200000D02*
X133650000Y-114900000D01*
X133650000Y-114900000D02*
X133750000Y-115000000D01*
X119600000Y-119750000D02*
X121900000Y-119750000D01*
X122250000Y-119400000D02*
X122250000Y-119050000D01*
X121900000Y-119750000D02*
X122250000Y-119400000D01*
X119600000Y-117850000D02*
X120700000Y-117850000D01*
X121100000Y-118250000D02*
X122250000Y-118250000D01*
X120700000Y-117850000D02*
X121100000Y-118250000D01*
X124550000Y-105050000D02*
X124550000Y-108050000D01*
X124350000Y-108250000D02*
X124350000Y-109050000D01*
X124550000Y-108050000D02*
X124350000Y-108250000D01*
X122650000Y-105050000D02*
X122650000Y-108400000D01*
X122650000Y-108400000D02*
X123300000Y-109050000D01*
X132250000Y-107550000D02*
X132250000Y-109037500D01*
X131800000Y-107100000D02*
X132250000Y-107550000D01*
X126150000Y-107100000D02*
X131800000Y-107100000D01*
X125600000Y-107650000D02*
X126150000Y-107100000D01*
X131250000Y-107800000D02*
X131250000Y-109037500D01*
X131200000Y-107750000D02*
X131250000Y-107800000D01*
X129750000Y-110300000D02*
X130250000Y-109800000D01*
X130250000Y-109800000D02*
X130250000Y-109037500D01*
X129250000Y-109037500D02*
X128337500Y-109037500D01*
X128337500Y-109037500D02*
X128300000Y-109000000D01*
X134250000Y-110350000D02*
X134250000Y-109037500D01*
X131900000Y-111000000D02*
X133250000Y-109650000D01*
X133250000Y-109650000D02*
X133250000Y-109037500D01*
X129300000Y-120500000D02*
X133150000Y-120500000D01*
X133150000Y-120500000D02*
X133175000Y-120475000D01*
X136500000Y-118650000D02*
X134675000Y-120475000D01*
X134675000Y-120475000D02*
X133175000Y-120475000D01*
X130750000Y-119050000D02*
X133850000Y-119050000D01*
X137150000Y-117875000D02*
X137150000Y-119250000D01*
X136950000Y-117675000D02*
X137150000Y-117875000D01*
X135225000Y-117675000D02*
X136950000Y-117675000D01*
X133850000Y-119050000D02*
X135225000Y-117675000D01*
X128500000Y-119300000D02*
X128500000Y-120500000D01*
X128700000Y-119100000D02*
X128500000Y-119300000D01*
X128700000Y-119000000D02*
X128700000Y-119100000D01*
X128900000Y-118800000D02*
X128700000Y-119000000D01*
X126100000Y-112000000D02*
X126100000Y-115075000D01*
X126100000Y-115075000D02*
X126325000Y-115300000D01*
X125300000Y-117150000D02*
X125300000Y-112000000D01*
X126100000Y-119400000D02*
X126100000Y-120500000D01*
X125500000Y-118800000D02*
X126100000Y-119400000D01*
X123700000Y-120500000D02*
X123700000Y-119000000D01*
X124500000Y-117175000D02*
X124500000Y-112000000D01*
X124475000Y-117200000D02*
X124500000Y-117175000D01*
X124500000Y-121900000D02*
X124500000Y-120500000D01*
X125300000Y-121700000D02*
X125300000Y-120500000D01*
X125500000Y-121900000D02*
X125300000Y-121700000D01*
X131500000Y-121900000D02*
X125500000Y-121900000D01*
D23*
G36*
X123091594Y-119700000D02*
X123091594Y-121300000D01*
X123114395Y-121421179D01*
X123186012Y-121532474D01*
X123295286Y-121607138D01*
X123425000Y-121633406D01*
X123931794Y-121633406D01*
X123873109Y-121774735D01*
X123872891Y-122024171D01*
X123944716Y-122198000D01*
X118702000Y-122198000D01*
X118702000Y-120433406D01*
X120600000Y-120433406D01*
X120721179Y-120410605D01*
X120832474Y-120338988D01*
X120907138Y-120229714D01*
X120912750Y-120202000D01*
X121900000Y-120202000D01*
X122072973Y-120167594D01*
X122219612Y-120069612D01*
X122569612Y-119719612D01*
X122610509Y-119658406D01*
X123050000Y-119658406D01*
X123101998Y-119648622D01*
X123091594Y-119700000D01*
X123091594Y-119700000D01*
G37*
X123091594Y-119700000D02*
X123091594Y-121300000D01*
X123114395Y-121421179D01*
X123186012Y-121532474D01*
X123295286Y-121607138D01*
X123425000Y-121633406D01*
X123931794Y-121633406D01*
X123873109Y-121774735D01*
X123872891Y-122024171D01*
X123944716Y-122198000D01*
X118702000Y-122198000D01*
X118702000Y-120433406D01*
X120600000Y-120433406D01*
X120721179Y-120410605D01*
X120832474Y-120338988D01*
X120907138Y-120229714D01*
X120912750Y-120202000D01*
X121900000Y-120202000D01*
X122072973Y-120167594D01*
X122219612Y-120069612D01*
X122569612Y-119719612D01*
X122610509Y-119658406D01*
X123050000Y-119658406D01*
X123101998Y-119648622D01*
X123091594Y-119700000D01*
G36*
X136814395Y-111871179D02*
X136886012Y-111982474D01*
X136995286Y-112057138D01*
X137125000Y-112083406D01*
X138248000Y-112083406D01*
X138248000Y-112423000D01*
X137958750Y-112423000D01*
X137877000Y-112504750D01*
X137877000Y-113123000D01*
X137897000Y-113123000D01*
X137897000Y-113377000D01*
X137877000Y-113377000D01*
X137877000Y-113995250D01*
X137958750Y-114077000D01*
X138248000Y-114077000D01*
X138248000Y-121447741D01*
X138213688Y-121364700D01*
X137982517Y-121133125D01*
X137680323Y-121007643D01*
X137353112Y-121007357D01*
X137050700Y-121132312D01*
X136819125Y-121363483D01*
X136693643Y-121665677D01*
X136693357Y-121992888D01*
X136778108Y-122198000D01*
X136221783Y-122198000D01*
X136306357Y-121994323D01*
X136306643Y-121667112D01*
X136181688Y-121364700D01*
X135950517Y-121133125D01*
X135648323Y-121007643D01*
X135321112Y-121007357D01*
X135018700Y-121132312D01*
X134787125Y-121363483D01*
X134661643Y-121665677D01*
X134661357Y-121992888D01*
X134746108Y-122198000D01*
X132055165Y-122198000D01*
X132126891Y-122025265D01*
X132127109Y-121775829D01*
X132031855Y-121545297D01*
X131855631Y-121368765D01*
X131625265Y-121273109D01*
X131375829Y-121272891D01*
X131145297Y-121368145D01*
X131065302Y-121448000D01*
X129869644Y-121448000D01*
X129882138Y-121429714D01*
X129908406Y-121300000D01*
X129908406Y-120952000D01*
X132765229Y-120952000D01*
X132819369Y-121006235D01*
X133049735Y-121101891D01*
X133299171Y-121102109D01*
X133529703Y-121006855D01*
X133609698Y-120927000D01*
X134675000Y-120927000D01*
X134847973Y-120892594D01*
X134994612Y-120794612D01*
X136512213Y-119277011D01*
X136522976Y-119277021D01*
X136522891Y-119374171D01*
X136618145Y-119604703D01*
X136794369Y-119781235D01*
X137024735Y-119876891D01*
X137274171Y-119877109D01*
X137504703Y-119781855D01*
X137681235Y-119605631D01*
X137776891Y-119375265D01*
X137777109Y-119125829D01*
X137681855Y-118895297D01*
X137602000Y-118815302D01*
X137602000Y-117875000D01*
X137567594Y-117702027D01*
X137469612Y-117555388D01*
X137269612Y-117355388D01*
X137142706Y-117270591D01*
X137196875Y-117216517D01*
X137322357Y-116914323D01*
X137322643Y-116587112D01*
X137197688Y-116284700D01*
X136966517Y-116053125D01*
X136664323Y-115927643D01*
X136374458Y-115927390D01*
X136435230Y-115902217D01*
X136527217Y-115810231D01*
X136577000Y-115690045D01*
X136577000Y-115208750D01*
X136495250Y-115127000D01*
X135877000Y-115127000D01*
X135877000Y-115870250D01*
X135958750Y-115952000D01*
X136277472Y-115952000D01*
X136034700Y-116052312D01*
X135803125Y-116283483D01*
X135677643Y-116585677D01*
X135677357Y-116912888D01*
X135802312Y-117215300D01*
X135809999Y-117223000D01*
X135225000Y-117223000D01*
X135052027Y-117257406D01*
X134905388Y-117355387D01*
X133662776Y-118598000D01*
X132330125Y-118598000D01*
X132429703Y-118556855D01*
X132606235Y-118380631D01*
X132701891Y-118150265D01*
X132701990Y-118037234D01*
X134069612Y-116669612D01*
X134167594Y-116522973D01*
X134202000Y-116350000D01*
X134202000Y-115958406D01*
X134250000Y-115958406D01*
X134371179Y-115935605D01*
X134482474Y-115863988D01*
X134557138Y-115754714D01*
X134583406Y-115625000D01*
X134583406Y-115208750D01*
X134923000Y-115208750D01*
X134923000Y-115690045D01*
X134972783Y-115810231D01*
X135064770Y-115902217D01*
X135184956Y-115952000D01*
X135541250Y-115952000D01*
X135623000Y-115870250D01*
X135623000Y-115127000D01*
X135004750Y-115127000D01*
X134923000Y-115208750D01*
X134583406Y-115208750D01*
X134583406Y-114375000D01*
X134571168Y-114309955D01*
X134923000Y-114309955D01*
X134923000Y-114791250D01*
X135004750Y-114873000D01*
X135623000Y-114873000D01*
X135623000Y-114129750D01*
X135877000Y-114129750D01*
X135877000Y-114873000D01*
X136495250Y-114873000D01*
X136577000Y-114791250D01*
X136577000Y-114309955D01*
X136527217Y-114189769D01*
X136435230Y-114097783D01*
X136315044Y-114048000D01*
X135958750Y-114048000D01*
X135877000Y-114129750D01*
X135623000Y-114129750D01*
X135541250Y-114048000D01*
X135184956Y-114048000D01*
X135064770Y-114097783D01*
X134972783Y-114189769D01*
X134923000Y-114309955D01*
X134571168Y-114309955D01*
X134560605Y-114253821D01*
X134488988Y-114142526D01*
X134379714Y-114067862D01*
X134250000Y-114041594D01*
X134102000Y-114041594D01*
X134102000Y-113858406D01*
X134180000Y-113858406D01*
X134301179Y-113835605D01*
X134412474Y-113763988D01*
X134487138Y-113654714D01*
X134513406Y-113525000D01*
X134513406Y-113402630D01*
X134630388Y-113519612D01*
X134777027Y-113617594D01*
X134950000Y-113652000D01*
X135013141Y-113652000D01*
X135081012Y-113757474D01*
X135190286Y-113832138D01*
X135320000Y-113858406D01*
X136380000Y-113858406D01*
X136501179Y-113835605D01*
X136612474Y-113763988D01*
X136687138Y-113654714D01*
X136713406Y-113525000D01*
X136713406Y-113458750D01*
X136798000Y-113458750D01*
X136798000Y-113815044D01*
X136847783Y-113935230D01*
X136939769Y-114027217D01*
X137059955Y-114077000D01*
X137541250Y-114077000D01*
X137623000Y-113995250D01*
X137623000Y-113377000D01*
X136879750Y-113377000D01*
X136798000Y-113458750D01*
X136713406Y-113458750D01*
X136713406Y-112875000D01*
X136690605Y-112753821D01*
X136671908Y-112724765D01*
X136688397Y-112684956D01*
X136798000Y-112684956D01*
X136798000Y-113041250D01*
X136879750Y-113123000D01*
X137623000Y-113123000D01*
X137623000Y-112504750D01*
X137541250Y-112423000D01*
X137059955Y-112423000D01*
X136939769Y-112472783D01*
X136847783Y-112564770D01*
X136798000Y-112684956D01*
X136688397Y-112684956D01*
X136707000Y-112640045D01*
X136707000Y-112458750D01*
X136625250Y-112377000D01*
X135977000Y-112377000D01*
X135977000Y-112397000D01*
X135723000Y-112397000D01*
X135723000Y-112377000D01*
X135703000Y-112377000D01*
X135703000Y-112123000D01*
X135723000Y-112123000D01*
X135723000Y-112103000D01*
X135977000Y-112103000D01*
X135977000Y-112123000D01*
X136625250Y-112123000D01*
X136707000Y-112041250D01*
X136707000Y-111859955D01*
X136672364Y-111776337D01*
X136687138Y-111754714D01*
X136687688Y-111752000D01*
X136791970Y-111752000D01*
X136814395Y-111871179D01*
X136814395Y-111871179D01*
G37*
X136814395Y-111871179D02*
X136886012Y-111982474D01*
X136995286Y-112057138D01*
X137125000Y-112083406D01*
X138248000Y-112083406D01*
X138248000Y-112423000D01*
X137958750Y-112423000D01*
X137877000Y-112504750D01*
X137877000Y-113123000D01*
X137897000Y-113123000D01*
X137897000Y-113377000D01*
X137877000Y-113377000D01*
X137877000Y-113995250D01*
X137958750Y-114077000D01*
X138248000Y-114077000D01*
X138248000Y-121447741D01*
X138213688Y-121364700D01*
X137982517Y-121133125D01*
X137680323Y-121007643D01*
X137353112Y-121007357D01*
X137050700Y-121132312D01*
X136819125Y-121363483D01*
X136693643Y-121665677D01*
X136693357Y-121992888D01*
X136778108Y-122198000D01*
X136221783Y-122198000D01*
X136306357Y-121994323D01*
X136306643Y-121667112D01*
X136181688Y-121364700D01*
X135950517Y-121133125D01*
X135648323Y-121007643D01*
X135321112Y-121007357D01*
X135018700Y-121132312D01*
X134787125Y-121363483D01*
X134661643Y-121665677D01*
X134661357Y-121992888D01*
X134746108Y-122198000D01*
X132055165Y-122198000D01*
X132126891Y-122025265D01*
X132127109Y-121775829D01*
X132031855Y-121545297D01*
X131855631Y-121368765D01*
X131625265Y-121273109D01*
X131375829Y-121272891D01*
X131145297Y-121368145D01*
X131065302Y-121448000D01*
X129869644Y-121448000D01*
X129882138Y-121429714D01*
X129908406Y-121300000D01*
X129908406Y-120952000D01*
X132765229Y-120952000D01*
X132819369Y-121006235D01*
X133049735Y-121101891D01*
X133299171Y-121102109D01*
X133529703Y-121006855D01*
X133609698Y-120927000D01*
X134675000Y-120927000D01*
X134847973Y-120892594D01*
X134994612Y-120794612D01*
X136512213Y-119277011D01*
X136522976Y-119277021D01*
X136522891Y-119374171D01*
X136618145Y-119604703D01*
X136794369Y-119781235D01*
X137024735Y-119876891D01*
X137274171Y-119877109D01*
X137504703Y-119781855D01*
X137681235Y-119605631D01*
X137776891Y-119375265D01*
X137777109Y-119125829D01*
X137681855Y-118895297D01*
X137602000Y-118815302D01*
X137602000Y-117875000D01*
X137567594Y-117702027D01*
X137469612Y-117555388D01*
X137269612Y-117355388D01*
X137142706Y-117270591D01*
X137196875Y-117216517D01*
X137322357Y-116914323D01*
X137322643Y-116587112D01*
X137197688Y-116284700D01*
X136966517Y-116053125D01*
X136664323Y-115927643D01*
X136374458Y-115927390D01*
X136435230Y-115902217D01*
X136527217Y-115810231D01*
X136577000Y-115690045D01*
X136577000Y-115208750D01*
X136495250Y-115127000D01*
X135877000Y-115127000D01*
X135877000Y-115870250D01*
X135958750Y-115952000D01*
X136277472Y-115952000D01*
X136034700Y-116052312D01*
X135803125Y-116283483D01*
X135677643Y-116585677D01*
X135677357Y-116912888D01*
X135802312Y-117215300D01*
X135809999Y-117223000D01*
X135225000Y-117223000D01*
X135052027Y-117257406D01*
X134905388Y-117355387D01*
X133662776Y-118598000D01*
X132330125Y-118598000D01*
X132429703Y-118556855D01*
X132606235Y-118380631D01*
X132701891Y-118150265D01*
X132701990Y-118037234D01*
X134069612Y-116669612D01*
X134167594Y-116522973D01*
X134202000Y-116350000D01*
X134202000Y-115958406D01*
X134250000Y-115958406D01*
X134371179Y-115935605D01*
X134482474Y-115863988D01*
X134557138Y-115754714D01*
X134583406Y-115625000D01*
X134583406Y-115208750D01*
X134923000Y-115208750D01*
X134923000Y-115690045D01*
X134972783Y-115810231D01*
X135064770Y-115902217D01*
X135184956Y-115952000D01*
X135541250Y-115952000D01*
X135623000Y-115870250D01*
X135623000Y-115127000D01*
X135004750Y-115127000D01*
X134923000Y-115208750D01*
X134583406Y-115208750D01*
X134583406Y-114375000D01*
X134571168Y-114309955D01*
X134923000Y-114309955D01*
X134923000Y-114791250D01*
X135004750Y-114873000D01*
X135623000Y-114873000D01*
X135623000Y-114129750D01*
X135877000Y-114129750D01*
X135877000Y-114873000D01*
X136495250Y-114873000D01*
X136577000Y-114791250D01*
X136577000Y-114309955D01*
X136527217Y-114189769D01*
X136435230Y-114097783D01*
X136315044Y-114048000D01*
X135958750Y-114048000D01*
X135877000Y-114129750D01*
X135623000Y-114129750D01*
X135541250Y-114048000D01*
X135184956Y-114048000D01*
X135064770Y-114097783D01*
X134972783Y-114189769D01*
X134923000Y-114309955D01*
X134571168Y-114309955D01*
X134560605Y-114253821D01*
X134488988Y-114142526D01*
X134379714Y-114067862D01*
X134250000Y-114041594D01*
X134102000Y-114041594D01*
X134102000Y-113858406D01*
X134180000Y-113858406D01*
X134301179Y-113835605D01*
X134412474Y-113763988D01*
X134487138Y-113654714D01*
X134513406Y-113525000D01*
X134513406Y-113402630D01*
X134630388Y-113519612D01*
X134777027Y-113617594D01*
X134950000Y-113652000D01*
X135013141Y-113652000D01*
X135081012Y-113757474D01*
X135190286Y-113832138D01*
X135320000Y-113858406D01*
X136380000Y-113858406D01*
X136501179Y-113835605D01*
X136612474Y-113763988D01*
X136687138Y-113654714D01*
X136713406Y-113525000D01*
X136713406Y-113458750D01*
X136798000Y-113458750D01*
X136798000Y-113815044D01*
X136847783Y-113935230D01*
X136939769Y-114027217D01*
X137059955Y-114077000D01*
X137541250Y-114077000D01*
X137623000Y-113995250D01*
X137623000Y-113377000D01*
X136879750Y-113377000D01*
X136798000Y-113458750D01*
X136713406Y-113458750D01*
X136713406Y-112875000D01*
X136690605Y-112753821D01*
X136671908Y-112724765D01*
X136688397Y-112684956D01*
X136798000Y-112684956D01*
X136798000Y-113041250D01*
X136879750Y-113123000D01*
X137623000Y-113123000D01*
X137623000Y-112504750D01*
X137541250Y-112423000D01*
X137059955Y-112423000D01*
X136939769Y-112472783D01*
X136847783Y-112564770D01*
X136798000Y-112684956D01*
X136688397Y-112684956D01*
X136707000Y-112640045D01*
X136707000Y-112458750D01*
X136625250Y-112377000D01*
X135977000Y-112377000D01*
X135977000Y-112397000D01*
X135723000Y-112397000D01*
X135723000Y-112377000D01*
X135703000Y-112377000D01*
X135703000Y-112123000D01*
X135723000Y-112123000D01*
X135723000Y-112103000D01*
X135977000Y-112103000D01*
X135977000Y-112123000D01*
X136625250Y-112123000D01*
X136707000Y-112041250D01*
X136707000Y-111859955D01*
X136672364Y-111776337D01*
X136687138Y-111754714D01*
X136687688Y-111752000D01*
X136791970Y-111752000D01*
X136814395Y-111871179D01*
G36*
X120894977Y-118646179D02*
X120927027Y-118667594D01*
X121100000Y-118702000D01*
X121131377Y-118702000D01*
X121116594Y-118775000D01*
X121116594Y-119298000D01*
X120914214Y-119298000D01*
X120910605Y-119278821D01*
X120879307Y-119230183D01*
X120927000Y-119115044D01*
X120927000Y-119006750D01*
X120845250Y-118925000D01*
X119727000Y-118925000D01*
X119727000Y-118947000D01*
X119473000Y-118947000D01*
X119473000Y-118925000D01*
X119453000Y-118925000D01*
X119453000Y-118675000D01*
X119473000Y-118675000D01*
X119473000Y-118653000D01*
X119727000Y-118653000D01*
X119727000Y-118675000D01*
X120845250Y-118675000D01*
X120882445Y-118637805D01*
X120894977Y-118646179D01*
X120894977Y-118646179D01*
G37*
X120894977Y-118646179D02*
X120927027Y-118667594D01*
X121100000Y-118702000D01*
X121131377Y-118702000D01*
X121116594Y-118775000D01*
X121116594Y-119298000D01*
X120914214Y-119298000D01*
X120910605Y-119278821D01*
X120879307Y-119230183D01*
X120927000Y-119115044D01*
X120927000Y-119006750D01*
X120845250Y-118925000D01*
X119727000Y-118925000D01*
X119727000Y-118947000D01*
X119473000Y-118947000D01*
X119473000Y-118925000D01*
X119453000Y-118925000D01*
X119453000Y-118675000D01*
X119473000Y-118675000D01*
X119473000Y-118653000D01*
X119727000Y-118653000D01*
X119727000Y-118675000D01*
X120845250Y-118675000D01*
X120882445Y-118637805D01*
X120894977Y-118646179D01*
G36*
X131820286Y-110119638D02*
X131950000Y-110145906D01*
X132114870Y-110145906D01*
X131887787Y-110372989D01*
X131775829Y-110372891D01*
X131545297Y-110468145D01*
X131368765Y-110644369D01*
X131273109Y-110874735D01*
X131272891Y-111124171D01*
X131368145Y-111354703D01*
X131544369Y-111531235D01*
X131774735Y-111626891D01*
X132024171Y-111627109D01*
X132254703Y-111531855D01*
X132431235Y-111355631D01*
X132526891Y-111125265D01*
X132526990Y-111012234D01*
X133393318Y-110145906D01*
X133550000Y-110145906D01*
X133664812Y-110124303D01*
X133623109Y-110224735D01*
X133622891Y-110474171D01*
X133692069Y-110641594D01*
X133120000Y-110641594D01*
X132998821Y-110664395D01*
X132887526Y-110736012D01*
X132812862Y-110845286D01*
X132786594Y-110975000D01*
X132786594Y-111625000D01*
X132809395Y-111746179D01*
X132881012Y-111857474D01*
X132990286Y-111932138D01*
X133120000Y-111958406D01*
X134180000Y-111958406D01*
X134298000Y-111936203D01*
X134298000Y-112565490D01*
X134180000Y-112541594D01*
X133533420Y-112541594D01*
X133510631Y-112518765D01*
X133280265Y-112423109D01*
X133030829Y-112422891D01*
X132800297Y-112518145D01*
X132623765Y-112694369D01*
X132528109Y-112924735D01*
X132527891Y-113174171D01*
X132623145Y-113404703D01*
X132796666Y-113578527D01*
X132809395Y-113646179D01*
X132881012Y-113757474D01*
X132990286Y-113832138D01*
X133120000Y-113858406D01*
X133198000Y-113858406D01*
X133198000Y-114051378D01*
X133128821Y-114064395D01*
X133017526Y-114136012D01*
X132942862Y-114245286D01*
X132916594Y-114375000D01*
X132916594Y-115625000D01*
X132939395Y-115746179D01*
X133011012Y-115857474D01*
X133120286Y-115932138D01*
X133250000Y-115958406D01*
X133298000Y-115958406D01*
X133298000Y-116162776D01*
X132062787Y-117397989D01*
X131950829Y-117397891D01*
X131883406Y-117425750D01*
X131883406Y-117175000D01*
X131860605Y-117053821D01*
X131858105Y-117049937D01*
X131883406Y-116925000D01*
X131883406Y-116375000D01*
X131860605Y-116253821D01*
X131854508Y-116244346D01*
X131877000Y-116190045D01*
X131877000Y-116058750D01*
X131795250Y-115977000D01*
X130877000Y-115977000D01*
X130877000Y-115997000D01*
X130623000Y-115997000D01*
X130623000Y-115977000D01*
X129704750Y-115977000D01*
X129623000Y-116058750D01*
X129623000Y-116190045D01*
X129644742Y-116242535D01*
X129642862Y-116245286D01*
X129616594Y-116375000D01*
X129616594Y-116925000D01*
X129639395Y-117046179D01*
X129641895Y-117050063D01*
X129616594Y-117175000D01*
X129616594Y-117644962D01*
X129522973Y-117582406D01*
X129350000Y-117548000D01*
X125788792Y-117548000D01*
X125831235Y-117505631D01*
X125926891Y-117275265D01*
X125927109Y-117025829D01*
X125831855Y-116795297D01*
X125752000Y-116715302D01*
X125752000Y-115555125D01*
X125793145Y-115654703D01*
X125969369Y-115831235D01*
X126199735Y-115926891D01*
X126449171Y-115927109D01*
X126679703Y-115831855D01*
X126856235Y-115655631D01*
X126951891Y-115425265D01*
X126952109Y-115175829D01*
X126856855Y-114945297D01*
X126680631Y-114768765D01*
X126552000Y-114715353D01*
X126552000Y-113118623D01*
X126625000Y-113133406D01*
X127175000Y-113133406D01*
X127296179Y-113110605D01*
X127300063Y-113108105D01*
X127425000Y-113133406D01*
X127975000Y-113133406D01*
X128096179Y-113110605D01*
X128100063Y-113108105D01*
X128225000Y-113133406D01*
X128775000Y-113133406D01*
X128896179Y-113110605D01*
X128900063Y-113108105D01*
X129025000Y-113133406D01*
X129575000Y-113133406D01*
X129626998Y-113123622D01*
X129616594Y-113175000D01*
X129616594Y-113725000D01*
X129639395Y-113846179D01*
X129641895Y-113850063D01*
X129616594Y-113975000D01*
X129616594Y-114525000D01*
X129639395Y-114646179D01*
X129641895Y-114650063D01*
X129616594Y-114775000D01*
X129616594Y-115325000D01*
X129639395Y-115446179D01*
X129645492Y-115455654D01*
X129623000Y-115509955D01*
X129623000Y-115641250D01*
X129704750Y-115723000D01*
X130623000Y-115723000D01*
X130623000Y-115703000D01*
X130877000Y-115703000D01*
X130877000Y-115723000D01*
X131795250Y-115723000D01*
X131877000Y-115641250D01*
X131877000Y-115509955D01*
X131855258Y-115457465D01*
X131857138Y-115454714D01*
X131883406Y-115325000D01*
X131883406Y-114775000D01*
X131860605Y-114653821D01*
X131858105Y-114649937D01*
X131883406Y-114525000D01*
X131883406Y-113975000D01*
X131860605Y-113853821D01*
X131858105Y-113849937D01*
X131883406Y-113725000D01*
X131883406Y-113175000D01*
X131860605Y-113053821D01*
X131788988Y-112942526D01*
X131679714Y-112867862D01*
X131550000Y-112841594D01*
X129950000Y-112841594D01*
X129898002Y-112851378D01*
X129908406Y-112800000D01*
X129908406Y-111200000D01*
X129885605Y-111078821D01*
X129813988Y-110967526D01*
X129754683Y-110927005D01*
X129874171Y-110927109D01*
X130104703Y-110831855D01*
X130281235Y-110655631D01*
X130376891Y-110425265D01*
X130376990Y-110312234D01*
X130543318Y-110145906D01*
X130550000Y-110145906D01*
X130671179Y-110123105D01*
X130750581Y-110072011D01*
X130820286Y-110119638D01*
X130950000Y-110145906D01*
X131550000Y-110145906D01*
X131671179Y-110123105D01*
X131750581Y-110072011D01*
X131820286Y-110119638D01*
X131820286Y-110119638D01*
G37*
X131820286Y-110119638D02*
X131950000Y-110145906D01*
X132114870Y-110145906D01*
X131887787Y-110372989D01*
X131775829Y-110372891D01*
X131545297Y-110468145D01*
X131368765Y-110644369D01*
X131273109Y-110874735D01*
X131272891Y-111124171D01*
X131368145Y-111354703D01*
X131544369Y-111531235D01*
X131774735Y-111626891D01*
X132024171Y-111627109D01*
X132254703Y-111531855D01*
X132431235Y-111355631D01*
X132526891Y-111125265D01*
X132526990Y-111012234D01*
X133393318Y-110145906D01*
X133550000Y-110145906D01*
X133664812Y-110124303D01*
X133623109Y-110224735D01*
X133622891Y-110474171D01*
X133692069Y-110641594D01*
X133120000Y-110641594D01*
X132998821Y-110664395D01*
X132887526Y-110736012D01*
X132812862Y-110845286D01*
X132786594Y-110975000D01*
X132786594Y-111625000D01*
X132809395Y-111746179D01*
X132881012Y-111857474D01*
X132990286Y-111932138D01*
X133120000Y-111958406D01*
X134180000Y-111958406D01*
X134298000Y-111936203D01*
X134298000Y-112565490D01*
X134180000Y-112541594D01*
X133533420Y-112541594D01*
X133510631Y-112518765D01*
X133280265Y-112423109D01*
X133030829Y-112422891D01*
X132800297Y-112518145D01*
X132623765Y-112694369D01*
X132528109Y-112924735D01*
X132527891Y-113174171D01*
X132623145Y-113404703D01*
X132796666Y-113578527D01*
X132809395Y-113646179D01*
X132881012Y-113757474D01*
X132990286Y-113832138D01*
X133120000Y-113858406D01*
X133198000Y-113858406D01*
X133198000Y-114051378D01*
X133128821Y-114064395D01*
X133017526Y-114136012D01*
X132942862Y-114245286D01*
X132916594Y-114375000D01*
X132916594Y-115625000D01*
X132939395Y-115746179D01*
X133011012Y-115857474D01*
X133120286Y-115932138D01*
X133250000Y-115958406D01*
X133298000Y-115958406D01*
X133298000Y-116162776D01*
X132062787Y-117397989D01*
X131950829Y-117397891D01*
X131883406Y-117425750D01*
X131883406Y-117175000D01*
X131860605Y-117053821D01*
X131858105Y-117049937D01*
X131883406Y-116925000D01*
X131883406Y-116375000D01*
X131860605Y-116253821D01*
X131854508Y-116244346D01*
X131877000Y-116190045D01*
X131877000Y-116058750D01*
X131795250Y-115977000D01*
X130877000Y-115977000D01*
X130877000Y-115997000D01*
X130623000Y-115997000D01*
X130623000Y-115977000D01*
X129704750Y-115977000D01*
X129623000Y-116058750D01*
X129623000Y-116190045D01*
X129644742Y-116242535D01*
X129642862Y-116245286D01*
X129616594Y-116375000D01*
X129616594Y-116925000D01*
X129639395Y-117046179D01*
X129641895Y-117050063D01*
X129616594Y-117175000D01*
X129616594Y-117644962D01*
X129522973Y-117582406D01*
X129350000Y-117548000D01*
X125788792Y-117548000D01*
X125831235Y-117505631D01*
X125926891Y-117275265D01*
X125927109Y-117025829D01*
X125831855Y-116795297D01*
X125752000Y-116715302D01*
X125752000Y-115555125D01*
X125793145Y-115654703D01*
X125969369Y-115831235D01*
X126199735Y-115926891D01*
X126449171Y-115927109D01*
X126679703Y-115831855D01*
X126856235Y-115655631D01*
X126951891Y-115425265D01*
X126952109Y-115175829D01*
X126856855Y-114945297D01*
X126680631Y-114768765D01*
X126552000Y-114715353D01*
X126552000Y-113118623D01*
X126625000Y-113133406D01*
X127175000Y-113133406D01*
X127296179Y-113110605D01*
X127300063Y-113108105D01*
X127425000Y-113133406D01*
X127975000Y-113133406D01*
X128096179Y-113110605D01*
X128100063Y-113108105D01*
X128225000Y-113133406D01*
X128775000Y-113133406D01*
X128896179Y-113110605D01*
X128900063Y-113108105D01*
X129025000Y-113133406D01*
X129575000Y-113133406D01*
X129626998Y-113123622D01*
X129616594Y-113175000D01*
X129616594Y-113725000D01*
X129639395Y-113846179D01*
X129641895Y-113850063D01*
X129616594Y-113975000D01*
X129616594Y-114525000D01*
X129639395Y-114646179D01*
X129641895Y-114650063D01*
X129616594Y-114775000D01*
X129616594Y-115325000D01*
X129639395Y-115446179D01*
X129645492Y-115455654D01*
X129623000Y-115509955D01*
X129623000Y-115641250D01*
X129704750Y-115723000D01*
X130623000Y-115723000D01*
X130623000Y-115703000D01*
X130877000Y-115703000D01*
X130877000Y-115723000D01*
X131795250Y-115723000D01*
X131877000Y-115641250D01*
X131877000Y-115509955D01*
X131855258Y-115457465D01*
X131857138Y-115454714D01*
X131883406Y-115325000D01*
X131883406Y-114775000D01*
X131860605Y-114653821D01*
X131858105Y-114649937D01*
X131883406Y-114525000D01*
X131883406Y-113975000D01*
X131860605Y-113853821D01*
X131858105Y-113849937D01*
X131883406Y-113725000D01*
X131883406Y-113175000D01*
X131860605Y-113053821D01*
X131788988Y-112942526D01*
X131679714Y-112867862D01*
X131550000Y-112841594D01*
X129950000Y-112841594D01*
X129898002Y-112851378D01*
X129908406Y-112800000D01*
X129908406Y-111200000D01*
X129885605Y-111078821D01*
X129813988Y-110967526D01*
X129754683Y-110927005D01*
X129874171Y-110927109D01*
X130104703Y-110831855D01*
X130281235Y-110655631D01*
X130376891Y-110425265D01*
X130376990Y-110312234D01*
X130543318Y-110145906D01*
X130550000Y-110145906D01*
X130671179Y-110123105D01*
X130750581Y-110072011D01*
X130820286Y-110119638D01*
X130950000Y-110145906D01*
X131550000Y-110145906D01*
X131671179Y-110123105D01*
X131750581Y-110072011D01*
X131820286Y-110119638D01*
G36*
X127016594Y-104262500D02*
X127016594Y-106062500D01*
X127039395Y-106183679D01*
X127111012Y-106294974D01*
X127220286Y-106369638D01*
X127350000Y-106395906D01*
X128550000Y-106395906D01*
X128671179Y-106373105D01*
X128782474Y-106301488D01*
X128857138Y-106192214D01*
X128883406Y-106062500D01*
X128883406Y-104262500D01*
X128862614Y-104152000D01*
X136638971Y-104152000D01*
X136616594Y-104262500D01*
X136616594Y-106062500D01*
X136639395Y-106183679D01*
X136711012Y-106294974D01*
X136820286Y-106369638D01*
X136950000Y-106395906D01*
X138150000Y-106395906D01*
X138248000Y-106377466D01*
X138248000Y-110416594D01*
X137125000Y-110416594D01*
X137003821Y-110439395D01*
X136892526Y-110511012D01*
X136817862Y-110620286D01*
X136791594Y-110750000D01*
X136791594Y-110848000D01*
X136702000Y-110848000D01*
X136702000Y-110103272D01*
X136782474Y-110051488D01*
X136857138Y-109942214D01*
X136883406Y-109812500D01*
X136883406Y-108262500D01*
X136860605Y-108141321D01*
X136788988Y-108030026D01*
X136702000Y-107970589D01*
X136702000Y-107884728D01*
X136781235Y-107805631D01*
X136876891Y-107575265D01*
X136877109Y-107325829D01*
X136781855Y-107095297D01*
X136605631Y-106918765D01*
X136375265Y-106823109D01*
X136125829Y-106822891D01*
X135895297Y-106918145D01*
X135718765Y-107094369D01*
X135623109Y-107324735D01*
X135622891Y-107574171D01*
X135718145Y-107804703D01*
X135798000Y-107884698D01*
X135798000Y-107971728D01*
X135751559Y-108001612D01*
X135735230Y-107985283D01*
X135615044Y-107935500D01*
X135458750Y-107935500D01*
X135377000Y-108017250D01*
X135377000Y-108910500D01*
X135397000Y-108910500D01*
X135397000Y-109164500D01*
X135377000Y-109164500D01*
X135377000Y-110057750D01*
X135458750Y-110139500D01*
X135615044Y-110139500D01*
X135735230Y-110089717D01*
X135751981Y-110072967D01*
X135798000Y-110104411D01*
X135798000Y-110641594D01*
X135320000Y-110641594D01*
X135198821Y-110664395D01*
X135087526Y-110736012D01*
X135012862Y-110845286D01*
X135012312Y-110848000D01*
X134950000Y-110848000D01*
X134777027Y-110882406D01*
X134630388Y-110980388D01*
X134513406Y-111097370D01*
X134513406Y-110975000D01*
X134503730Y-110923576D01*
X134604703Y-110881855D01*
X134781235Y-110705631D01*
X134876891Y-110475265D01*
X134877109Y-110225829D01*
X134832453Y-110117752D01*
X134884956Y-110139500D01*
X135041250Y-110139500D01*
X135123000Y-110057750D01*
X135123000Y-109164500D01*
X135103000Y-109164500D01*
X135103000Y-108910500D01*
X135123000Y-108910500D01*
X135123000Y-108017250D01*
X135041250Y-107935500D01*
X134884956Y-107935500D01*
X134764770Y-107985283D01*
X134748019Y-108002033D01*
X134679714Y-107955362D01*
X134550000Y-107929094D01*
X133950000Y-107929094D01*
X133828821Y-107951895D01*
X133749419Y-108002989D01*
X133679714Y-107955362D01*
X133550000Y-107929094D01*
X132950000Y-107929094D01*
X132828821Y-107951895D01*
X132749419Y-108002989D01*
X132702000Y-107970589D01*
X132702000Y-107550000D01*
X132667594Y-107377027D01*
X132569612Y-107230388D01*
X132119612Y-106780388D01*
X131972973Y-106682406D01*
X131800000Y-106648000D01*
X126150000Y-106648000D01*
X125977027Y-106682406D01*
X125830387Y-106780388D01*
X125587787Y-107022989D01*
X125475829Y-107022891D01*
X125245297Y-107118145D01*
X125068765Y-107294369D01*
X125002000Y-107455158D01*
X125002000Y-105823622D01*
X125071179Y-105810605D01*
X125182474Y-105738988D01*
X125257138Y-105629714D01*
X125283406Y-105500000D01*
X125283406Y-104600000D01*
X125260605Y-104478821D01*
X125188988Y-104367526D01*
X125079714Y-104292862D01*
X124950000Y-104266594D01*
X124150000Y-104266594D01*
X124028821Y-104289395D01*
X123917526Y-104361012D01*
X123842862Y-104470286D01*
X123816594Y-104600000D01*
X123816594Y-105500000D01*
X123839395Y-105621179D01*
X123911012Y-105732474D01*
X124020286Y-105807138D01*
X124098000Y-105822876D01*
X124098000Y-106286650D01*
X124065045Y-106273000D01*
X123808750Y-106273000D01*
X123727000Y-106354750D01*
X123727000Y-106923000D01*
X123747000Y-106923000D01*
X123747000Y-107177000D01*
X123727000Y-107177000D01*
X123727000Y-107745250D01*
X123808750Y-107827000D01*
X124065045Y-107827000D01*
X124098000Y-107813350D01*
X124098000Y-107862776D01*
X124030388Y-107930388D01*
X123932406Y-108077027D01*
X123898000Y-108250000D01*
X123898000Y-108615272D01*
X123824857Y-108688287D01*
X123655631Y-108518765D01*
X123425265Y-108423109D01*
X123312234Y-108423010D01*
X123102000Y-108212776D01*
X123102000Y-107813350D01*
X123134955Y-107827000D01*
X123391250Y-107827000D01*
X123473000Y-107745250D01*
X123473000Y-107177000D01*
X123453000Y-107177000D01*
X123453000Y-106923000D01*
X123473000Y-106923000D01*
X123473000Y-106354750D01*
X123391250Y-106273000D01*
X123134955Y-106273000D01*
X123102000Y-106286650D01*
X123102000Y-105823622D01*
X123171179Y-105810605D01*
X123282474Y-105738988D01*
X123357138Y-105629714D01*
X123383406Y-105500000D01*
X123383406Y-104600000D01*
X123360605Y-104478821D01*
X123288988Y-104367526D01*
X123179714Y-104292862D01*
X123050000Y-104266594D01*
X122250000Y-104266594D01*
X122128821Y-104289395D01*
X122017526Y-104361012D01*
X121942862Y-104470286D01*
X121916594Y-104600000D01*
X121916594Y-105500000D01*
X121939395Y-105621179D01*
X122011012Y-105732474D01*
X122120286Y-105807138D01*
X122198000Y-105822876D01*
X122198000Y-108400000D01*
X122232406Y-108572973D01*
X122330388Y-108719612D01*
X122672989Y-109062213D01*
X122672891Y-109174171D01*
X122768145Y-109404703D01*
X122944369Y-109581235D01*
X123174735Y-109676891D01*
X123424171Y-109677109D01*
X123654703Y-109581855D01*
X123825143Y-109411713D01*
X123994369Y-109581235D01*
X124224735Y-109676891D01*
X124474171Y-109677109D01*
X124704703Y-109581855D01*
X124881235Y-109405631D01*
X124976891Y-109175265D01*
X124977109Y-108925829D01*
X124881855Y-108695297D01*
X124802000Y-108615302D01*
X124802000Y-108437224D01*
X124869612Y-108369612D01*
X124967594Y-108222973D01*
X125002000Y-108050000D01*
X125002000Y-107844620D01*
X125068145Y-108004703D01*
X125244369Y-108181235D01*
X125474735Y-108276891D01*
X125724171Y-108277109D01*
X125954703Y-108181855D01*
X126131235Y-108005631D01*
X126226891Y-107775265D01*
X126226990Y-107662235D01*
X126337225Y-107552000D01*
X130603311Y-107552000D01*
X130573109Y-107624735D01*
X130572891Y-107874171D01*
X130599747Y-107939168D01*
X130550000Y-107929094D01*
X129950000Y-107929094D01*
X129828821Y-107951895D01*
X129749419Y-108002989D01*
X129679714Y-107955362D01*
X129550000Y-107929094D01*
X128950000Y-107929094D01*
X128828821Y-107951895D01*
X128717526Y-108023512D01*
X128642862Y-108132786D01*
X128616594Y-108262500D01*
X128616594Y-108452555D01*
X128425265Y-108373109D01*
X128175829Y-108372891D01*
X127945297Y-108468145D01*
X127768765Y-108644369D01*
X127673109Y-108874735D01*
X127672891Y-109124171D01*
X127768145Y-109354703D01*
X127944369Y-109531235D01*
X128174735Y-109626891D01*
X128424171Y-109627109D01*
X128616594Y-109547601D01*
X128616594Y-109812500D01*
X128639395Y-109933679D01*
X128711012Y-110044974D01*
X128820286Y-110119638D01*
X128950000Y-110145906D01*
X129135080Y-110145906D01*
X129123109Y-110174735D01*
X129122891Y-110424171D01*
X129218145Y-110654703D01*
X129394369Y-110831235D01*
X129479523Y-110866594D01*
X129025000Y-110866594D01*
X128903821Y-110889395D01*
X128899937Y-110891895D01*
X128775000Y-110866594D01*
X128225000Y-110866594D01*
X128103821Y-110889395D01*
X128099937Y-110891895D01*
X127975000Y-110866594D01*
X127425000Y-110866594D01*
X127303821Y-110889395D01*
X127299937Y-110891895D01*
X127175000Y-110866594D01*
X126625000Y-110866594D01*
X126503821Y-110889395D01*
X126499937Y-110891895D01*
X126375000Y-110866594D01*
X125825000Y-110866594D01*
X125703821Y-110889395D01*
X125699937Y-110891895D01*
X125575000Y-110866594D01*
X125025000Y-110866594D01*
X124903821Y-110889395D01*
X124899937Y-110891895D01*
X124775000Y-110866594D01*
X124225000Y-110866594D01*
X124103821Y-110889395D01*
X124099937Y-110891895D01*
X123975000Y-110866594D01*
X123425000Y-110866594D01*
X123303821Y-110889395D01*
X123192526Y-110961012D01*
X123117862Y-111070286D01*
X123091594Y-111200000D01*
X123091594Y-112800000D01*
X123101378Y-112851998D01*
X123050000Y-112841594D01*
X121450000Y-112841594D01*
X121328821Y-112864395D01*
X121217526Y-112936012D01*
X121142862Y-113045286D01*
X121116594Y-113175000D01*
X121116594Y-113725000D01*
X121139395Y-113846179D01*
X121141895Y-113850063D01*
X121116594Y-113975000D01*
X121116594Y-114525000D01*
X121139395Y-114646179D01*
X121141895Y-114650063D01*
X121116594Y-114775000D01*
X121116594Y-115325000D01*
X121130330Y-115398000D01*
X120537225Y-115398000D01*
X120465088Y-115325863D01*
X120546179Y-115310605D01*
X120657474Y-115238988D01*
X120732138Y-115129714D01*
X120758406Y-115000000D01*
X120758406Y-114000000D01*
X120735605Y-113878821D01*
X120663988Y-113767526D01*
X120554714Y-113692862D01*
X120425000Y-113666594D01*
X119175000Y-113666594D01*
X119053821Y-113689395D01*
X118942526Y-113761012D01*
X118867862Y-113870286D01*
X118841594Y-114000000D01*
X118841594Y-115000000D01*
X118864395Y-115121179D01*
X118936012Y-115232474D01*
X119045286Y-115307138D01*
X119175000Y-115333406D01*
X119354645Y-115333406D01*
X119382406Y-115472973D01*
X119480388Y-115619612D01*
X120030387Y-116169612D01*
X120143641Y-116245286D01*
X120177027Y-116267594D01*
X120350000Y-116302000D01*
X121126295Y-116302000D01*
X121123000Y-116309955D01*
X121123000Y-116441250D01*
X121204750Y-116523000D01*
X122123000Y-116523000D01*
X122123000Y-116503000D01*
X122377000Y-116503000D01*
X122377000Y-116523000D01*
X122397000Y-116523000D01*
X122397000Y-116777000D01*
X122377000Y-116777000D01*
X122377000Y-116797000D01*
X122123000Y-116797000D01*
X122123000Y-116777000D01*
X121204750Y-116777000D01*
X121123000Y-116858750D01*
X121123000Y-116990045D01*
X121144742Y-117042535D01*
X121142862Y-117045286D01*
X121116594Y-117175000D01*
X121116594Y-117627370D01*
X121019612Y-117530388D01*
X120927549Y-117468873D01*
X120910605Y-117378821D01*
X120838988Y-117267526D01*
X120729714Y-117192862D01*
X120600000Y-117166594D01*
X118702000Y-117166594D01*
X118702000Y-112708750D01*
X118848000Y-112708750D01*
X118848000Y-113065044D01*
X118897783Y-113185230D01*
X118989769Y-113277217D01*
X119109955Y-113327000D01*
X119591250Y-113327000D01*
X119673000Y-113245250D01*
X119673000Y-112627000D01*
X119927000Y-112627000D01*
X119927000Y-113245250D01*
X120008750Y-113327000D01*
X120490045Y-113327000D01*
X120610231Y-113277217D01*
X120702217Y-113185230D01*
X120752000Y-113065044D01*
X120752000Y-112708750D01*
X120670250Y-112627000D01*
X119927000Y-112627000D01*
X119673000Y-112627000D01*
X118929750Y-112627000D01*
X118848000Y-112708750D01*
X118702000Y-112708750D01*
X118702000Y-111934956D01*
X118848000Y-111934956D01*
X118848000Y-112291250D01*
X118929750Y-112373000D01*
X119673000Y-112373000D01*
X119673000Y-111754750D01*
X119927000Y-111754750D01*
X119927000Y-112373000D01*
X120670250Y-112373000D01*
X120752000Y-112291250D01*
X120752000Y-111934956D01*
X120702217Y-111814770D01*
X120610231Y-111722783D01*
X120490045Y-111673000D01*
X120008750Y-111673000D01*
X119927000Y-111754750D01*
X119673000Y-111754750D01*
X119591250Y-111673000D01*
X119109955Y-111673000D01*
X118989769Y-111722783D01*
X118897783Y-111814770D01*
X118848000Y-111934956D01*
X118702000Y-111934956D01*
X118702000Y-104152000D01*
X127038971Y-104152000D01*
X127016594Y-104262500D01*
X127016594Y-104262500D01*
G37*
X127016594Y-104262500D02*
X127016594Y-106062500D01*
X127039395Y-106183679D01*
X127111012Y-106294974D01*
X127220286Y-106369638D01*
X127350000Y-106395906D01*
X128550000Y-106395906D01*
X128671179Y-106373105D01*
X128782474Y-106301488D01*
X128857138Y-106192214D01*
X128883406Y-106062500D01*
X128883406Y-104262500D01*
X128862614Y-104152000D01*
X136638971Y-104152000D01*
X136616594Y-104262500D01*
X136616594Y-106062500D01*
X136639395Y-106183679D01*
X136711012Y-106294974D01*
X136820286Y-106369638D01*
X136950000Y-106395906D01*
X138150000Y-106395906D01*
X138248000Y-106377466D01*
X138248000Y-110416594D01*
X137125000Y-110416594D01*
X137003821Y-110439395D01*
X136892526Y-110511012D01*
X136817862Y-110620286D01*
X136791594Y-110750000D01*
X136791594Y-110848000D01*
X136702000Y-110848000D01*
X136702000Y-110103272D01*
X136782474Y-110051488D01*
X136857138Y-109942214D01*
X136883406Y-109812500D01*
X136883406Y-108262500D01*
X136860605Y-108141321D01*
X136788988Y-108030026D01*
X136702000Y-107970589D01*
X136702000Y-107884728D01*
X136781235Y-107805631D01*
X136876891Y-107575265D01*
X136877109Y-107325829D01*
X136781855Y-107095297D01*
X136605631Y-106918765D01*
X136375265Y-106823109D01*
X136125829Y-106822891D01*
X135895297Y-106918145D01*
X135718765Y-107094369D01*
X135623109Y-107324735D01*
X135622891Y-107574171D01*
X135718145Y-107804703D01*
X135798000Y-107884698D01*
X135798000Y-107971728D01*
X135751559Y-108001612D01*
X135735230Y-107985283D01*
X135615044Y-107935500D01*
X135458750Y-107935500D01*
X135377000Y-108017250D01*
X135377000Y-108910500D01*
X135397000Y-108910500D01*
X135397000Y-109164500D01*
X135377000Y-109164500D01*
X135377000Y-110057750D01*
X135458750Y-110139500D01*
X135615044Y-110139500D01*
X135735230Y-110089717D01*
X135751981Y-110072967D01*
X135798000Y-110104411D01*
X135798000Y-110641594D01*
X135320000Y-110641594D01*
X135198821Y-110664395D01*
X135087526Y-110736012D01*
X135012862Y-110845286D01*
X135012312Y-110848000D01*
X134950000Y-110848000D01*
X134777027Y-110882406D01*
X134630388Y-110980388D01*
X134513406Y-111097370D01*
X134513406Y-110975000D01*
X134503730Y-110923576D01*
X134604703Y-110881855D01*
X134781235Y-110705631D01*
X134876891Y-110475265D01*
X134877109Y-110225829D01*
X134832453Y-110117752D01*
X134884956Y-110139500D01*
X135041250Y-110139500D01*
X135123000Y-110057750D01*
X135123000Y-109164500D01*
X135103000Y-109164500D01*
X135103000Y-108910500D01*
X135123000Y-108910500D01*
X135123000Y-108017250D01*
X135041250Y-107935500D01*
X134884956Y-107935500D01*
X134764770Y-107985283D01*
X134748019Y-108002033D01*
X134679714Y-107955362D01*
X134550000Y-107929094D01*
X133950000Y-107929094D01*
X133828821Y-107951895D01*
X133749419Y-108002989D01*
X133679714Y-107955362D01*
X133550000Y-107929094D01*
X132950000Y-107929094D01*
X132828821Y-107951895D01*
X132749419Y-108002989D01*
X132702000Y-107970589D01*
X132702000Y-107550000D01*
X132667594Y-107377027D01*
X132569612Y-107230388D01*
X132119612Y-106780388D01*
X131972973Y-106682406D01*
X131800000Y-106648000D01*
X126150000Y-106648000D01*
X125977027Y-106682406D01*
X125830387Y-106780388D01*
X125587787Y-107022989D01*
X125475829Y-107022891D01*
X125245297Y-107118145D01*
X125068765Y-107294369D01*
X125002000Y-107455158D01*
X125002000Y-105823622D01*
X125071179Y-105810605D01*
X125182474Y-105738988D01*
X125257138Y-105629714D01*
X125283406Y-105500000D01*
X125283406Y-104600000D01*
X125260605Y-104478821D01*
X125188988Y-104367526D01*
X125079714Y-104292862D01*
X124950000Y-104266594D01*
X124150000Y-104266594D01*
X124028821Y-104289395D01*
X123917526Y-104361012D01*
X123842862Y-104470286D01*
X123816594Y-104600000D01*
X123816594Y-105500000D01*
X123839395Y-105621179D01*
X123911012Y-105732474D01*
X124020286Y-105807138D01*
X124098000Y-105822876D01*
X124098000Y-106286650D01*
X124065045Y-106273000D01*
X123808750Y-106273000D01*
X123727000Y-106354750D01*
X123727000Y-106923000D01*
X123747000Y-106923000D01*
X123747000Y-107177000D01*
X123727000Y-107177000D01*
X123727000Y-107745250D01*
X123808750Y-107827000D01*
X124065045Y-107827000D01*
X124098000Y-107813350D01*
X124098000Y-107862776D01*
X124030388Y-107930388D01*
X123932406Y-108077027D01*
X123898000Y-108250000D01*
X123898000Y-108615272D01*
X123824857Y-108688287D01*
X123655631Y-108518765D01*
X123425265Y-108423109D01*
X123312234Y-108423010D01*
X123102000Y-108212776D01*
X123102000Y-107813350D01*
X123134955Y-107827000D01*
X123391250Y-107827000D01*
X123473000Y-107745250D01*
X123473000Y-107177000D01*
X123453000Y-107177000D01*
X123453000Y-106923000D01*
X123473000Y-106923000D01*
X123473000Y-106354750D01*
X123391250Y-106273000D01*
X123134955Y-106273000D01*
X123102000Y-106286650D01*
X123102000Y-105823622D01*
X123171179Y-105810605D01*
X123282474Y-105738988D01*
X123357138Y-105629714D01*
X123383406Y-105500000D01*
X123383406Y-104600000D01*
X123360605Y-104478821D01*
X123288988Y-104367526D01*
X123179714Y-104292862D01*
X123050000Y-104266594D01*
X122250000Y-104266594D01*
X122128821Y-104289395D01*
X122017526Y-104361012D01*
X121942862Y-104470286D01*
X121916594Y-104600000D01*
X121916594Y-105500000D01*
X121939395Y-105621179D01*
X122011012Y-105732474D01*
X122120286Y-105807138D01*
X122198000Y-105822876D01*
X122198000Y-108400000D01*
X122232406Y-108572973D01*
X122330388Y-108719612D01*
X122672989Y-109062213D01*
X122672891Y-109174171D01*
X122768145Y-109404703D01*
X122944369Y-109581235D01*
X123174735Y-109676891D01*
X123424171Y-109677109D01*
X123654703Y-109581855D01*
X123825143Y-109411713D01*
X123994369Y-109581235D01*
X124224735Y-109676891D01*
X124474171Y-109677109D01*
X124704703Y-109581855D01*
X124881235Y-109405631D01*
X124976891Y-109175265D01*
X124977109Y-108925829D01*
X124881855Y-108695297D01*
X124802000Y-108615302D01*
X124802000Y-108437224D01*
X124869612Y-108369612D01*
X124967594Y-108222973D01*
X125002000Y-108050000D01*
X125002000Y-107844620D01*
X125068145Y-108004703D01*
X125244369Y-108181235D01*
X125474735Y-108276891D01*
X125724171Y-108277109D01*
X125954703Y-108181855D01*
X126131235Y-108005631D01*
X126226891Y-107775265D01*
X126226990Y-107662235D01*
X126337225Y-107552000D01*
X130603311Y-107552000D01*
X130573109Y-107624735D01*
X130572891Y-107874171D01*
X130599747Y-107939168D01*
X130550000Y-107929094D01*
X129950000Y-107929094D01*
X129828821Y-107951895D01*
X129749419Y-108002989D01*
X129679714Y-107955362D01*
X129550000Y-107929094D01*
X128950000Y-107929094D01*
X128828821Y-107951895D01*
X128717526Y-108023512D01*
X128642862Y-108132786D01*
X128616594Y-108262500D01*
X128616594Y-108452555D01*
X128425265Y-108373109D01*
X128175829Y-108372891D01*
X127945297Y-108468145D01*
X127768765Y-108644369D01*
X127673109Y-108874735D01*
X127672891Y-109124171D01*
X127768145Y-109354703D01*
X127944369Y-109531235D01*
X128174735Y-109626891D01*
X128424171Y-109627109D01*
X128616594Y-109547601D01*
X128616594Y-109812500D01*
X128639395Y-109933679D01*
X128711012Y-110044974D01*
X128820286Y-110119638D01*
X128950000Y-110145906D01*
X129135080Y-110145906D01*
X129123109Y-110174735D01*
X129122891Y-110424171D01*
X129218145Y-110654703D01*
X129394369Y-110831235D01*
X129479523Y-110866594D01*
X129025000Y-110866594D01*
X128903821Y-110889395D01*
X128899937Y-110891895D01*
X128775000Y-110866594D01*
X128225000Y-110866594D01*
X128103821Y-110889395D01*
X128099937Y-110891895D01*
X127975000Y-110866594D01*
X127425000Y-110866594D01*
X127303821Y-110889395D01*
X127299937Y-110891895D01*
X127175000Y-110866594D01*
X126625000Y-110866594D01*
X126503821Y-110889395D01*
X126499937Y-110891895D01*
X126375000Y-110866594D01*
X125825000Y-110866594D01*
X125703821Y-110889395D01*
X125699937Y-110891895D01*
X125575000Y-110866594D01*
X125025000Y-110866594D01*
X124903821Y-110889395D01*
X124899937Y-110891895D01*
X124775000Y-110866594D01*
X124225000Y-110866594D01*
X124103821Y-110889395D01*
X124099937Y-110891895D01*
X123975000Y-110866594D01*
X123425000Y-110866594D01*
X123303821Y-110889395D01*
X123192526Y-110961012D01*
X123117862Y-111070286D01*
X123091594Y-111200000D01*
X123091594Y-112800000D01*
X123101378Y-112851998D01*
X123050000Y-112841594D01*
X121450000Y-112841594D01*
X121328821Y-112864395D01*
X121217526Y-112936012D01*
X121142862Y-113045286D01*
X121116594Y-113175000D01*
X121116594Y-113725000D01*
X121139395Y-113846179D01*
X121141895Y-113850063D01*
X121116594Y-113975000D01*
X121116594Y-114525000D01*
X121139395Y-114646179D01*
X121141895Y-114650063D01*
X121116594Y-114775000D01*
X121116594Y-115325000D01*
X121130330Y-115398000D01*
X120537225Y-115398000D01*
X120465088Y-115325863D01*
X120546179Y-115310605D01*
X120657474Y-115238988D01*
X120732138Y-115129714D01*
X120758406Y-115000000D01*
X120758406Y-114000000D01*
X120735605Y-113878821D01*
X120663988Y-113767526D01*
X120554714Y-113692862D01*
X120425000Y-113666594D01*
X119175000Y-113666594D01*
X119053821Y-113689395D01*
X118942526Y-113761012D01*
X118867862Y-113870286D01*
X118841594Y-114000000D01*
X118841594Y-115000000D01*
X118864395Y-115121179D01*
X118936012Y-115232474D01*
X119045286Y-115307138D01*
X119175000Y-115333406D01*
X119354645Y-115333406D01*
X119382406Y-115472973D01*
X119480388Y-115619612D01*
X120030387Y-116169612D01*
X120143641Y-116245286D01*
X120177027Y-116267594D01*
X120350000Y-116302000D01*
X121126295Y-116302000D01*
X121123000Y-116309955D01*
X121123000Y-116441250D01*
X121204750Y-116523000D01*
X122123000Y-116523000D01*
X122123000Y-116503000D01*
X122377000Y-116503000D01*
X122377000Y-116523000D01*
X122397000Y-116523000D01*
X122397000Y-116777000D01*
X122377000Y-116777000D01*
X122377000Y-116797000D01*
X122123000Y-116797000D01*
X122123000Y-116777000D01*
X121204750Y-116777000D01*
X121123000Y-116858750D01*
X121123000Y-116990045D01*
X121144742Y-117042535D01*
X121142862Y-117045286D01*
X121116594Y-117175000D01*
X121116594Y-117627370D01*
X121019612Y-117530388D01*
X120927549Y-117468873D01*
X120910605Y-117378821D01*
X120838988Y-117267526D01*
X120729714Y-117192862D01*
X120600000Y-117166594D01*
X118702000Y-117166594D01*
X118702000Y-112708750D01*
X118848000Y-112708750D01*
X118848000Y-113065044D01*
X118897783Y-113185230D01*
X118989769Y-113277217D01*
X119109955Y-113327000D01*
X119591250Y-113327000D01*
X119673000Y-113245250D01*
X119673000Y-112627000D01*
X119927000Y-112627000D01*
X119927000Y-113245250D01*
X120008750Y-113327000D01*
X120490045Y-113327000D01*
X120610231Y-113277217D01*
X120702217Y-113185230D01*
X120752000Y-113065044D01*
X120752000Y-112708750D01*
X120670250Y-112627000D01*
X119927000Y-112627000D01*
X119673000Y-112627000D01*
X118929750Y-112627000D01*
X118848000Y-112708750D01*
X118702000Y-112708750D01*
X118702000Y-111934956D01*
X118848000Y-111934956D01*
X118848000Y-112291250D01*
X118929750Y-112373000D01*
X119673000Y-112373000D01*
X119673000Y-111754750D01*
X119927000Y-111754750D01*
X119927000Y-112373000D01*
X120670250Y-112373000D01*
X120752000Y-112291250D01*
X120752000Y-111934956D01*
X120702217Y-111814770D01*
X120610231Y-111722783D01*
X120490045Y-111673000D01*
X120008750Y-111673000D01*
X119927000Y-111754750D01*
X119673000Y-111754750D01*
X119591250Y-111673000D01*
X119109955Y-111673000D01*
X118989769Y-111722783D01*
X118897783Y-111814770D01*
X118848000Y-111934956D01*
X118702000Y-111934956D01*
X118702000Y-104152000D01*
X127038971Y-104152000D01*
X127016594Y-104262500D01*
M02*
