M48
INCH,TZ
T1C0.012
T2C0.016
%
G90
G05
T1
X46949Y-47657
X47106Y-45866
X47126Y-42461
X47146Y-42972
X47165Y-43484
X49626Y-43465
X50177Y-45925
X50748Y-45984
X52195Y-41476
X52756Y-47982
X52884Y-46122
X54114Y-42874
T2
X47087Y-46772
X48543Y-42933
X48701Y-46850
X48957Y-42933
X49006Y-46142
X49016Y-47992
X49331Y-46122
X49409Y-46772
X49449Y-42382
X49734Y-45394
X50512Y-42913
X50748Y-46772
X51083Y-43425
X51654Y-42421
X51772Y-47992
X51929Y-43701
X51998Y-46467
X52423Y-44508
X52431Y-47431
X52854Y-43445
X53490Y-47465
X53642Y-42303
X53740Y-46713
X53996Y-46949
T0
M30
